<svg width="171" height="22" viewBox="0 0 171 22" fill="none" xmlns="http://www.w3.org/2000/svg">
<g clip-path="url(#clip0_673_778)">
<path d="M0 0H4.53691V21.6364H0V0Z" fill="white"/>
<path d="M9.01367 0H13.5506V21.6364H9.01367V0Z" fill="white"/>
<path d="M18.0254 0H31.4535V3.60606H22.5624V8.75758H30.8445V12.3636H22.5624V18.0303H31.4535V21.6364H18.0254V0Z" fill="white"/>
<path d="M34.2227 0H38.5161V21.6364H34.2227V0Z" fill="white"/>
<path d="M41.1055 13.5151C41.1055 7.606 44.0591 5.06055 48.6569 5.06055C53.2547 5.06055 55.8733 7.5757 55.8733 13.5757V14.5454H45.338C45.4902 18.0605 46.5559 19.2423 48.596 19.2423C50.2098 19.2423 51.2146 18.3029 51.3973 16.6666H55.6906C55.4166 20.2423 52.4326 21.9999 48.596 21.9999C43.7242 21.9999 41.1055 19.4241 41.1055 13.5151ZM51.6409 11.7272C51.4278 8.75752 50.3925 7.78782 48.596 7.78782C46.7995 7.78782 45.6729 8.78782 45.3684 11.7272H51.6409Z" fill="white"/>
<path d="M61.1718 5.42383H56.7871L62.0852 21.636H66.8048L72.103 5.42383H67.7183L64.4006 17.636L61.1718 5.42383Z" fill="white"/>
<path d="M72.9238 13.5151C72.9238 7.606 75.8774 5.06055 80.4752 5.06055C85.073 5.06055 87.6916 7.5757 87.6916 13.5757V14.5454H77.1562C77.3085 18.0605 78.3742 19.2423 80.4143 19.2423C82.0281 19.2423 83.0329 18.3029 83.2156 16.6666H87.5089C87.2349 20.2423 84.2509 21.9999 80.4143 21.9999C75.5424 21.9999 72.9238 19.4241 72.9238 13.5151ZM83.4592 11.7272C83.246 8.75752 82.2108 7.78782 80.4143 7.78782C78.6178 7.78782 77.4912 8.78782 77.1867 11.7272H83.4592Z" fill="white"/>
<path d="M94.6355 12.0908C94.6355 9.54539 95.8534 8.15146 97.7413 8.15146C99.2942 8.15146 100.177 9.12115 100.177 11.212V21.6363H104.471V10.5454C104.471 6.78782 102.339 5.06055 99.2333 5.06055C97.1323 5.06055 95.3967 6.12115 94.6355 7.51509V5.42418H90.2812V21.6363H94.6355V12.0908Z" fill="white"/>
<path d="M108.031 0H112.568V18.0303H121.094V21.6364H108.031V0Z" fill="white"/>
<path fill-rule="evenodd" clip-rule="evenodd" d="M122.16 13.5151C122.16 7.33327 125.022 5.06055 128.706 5.06055C130.533 5.06055 132.208 6.09085 132.878 7.18176V5.42418H137.262V21.6363H133V19.7272C132.36 20.9999 130.564 21.9999 128.584 21.9999C124.687 21.9999 122.16 19.5151 122.16 13.5151ZM129.833 8.24236C131.964 8.24236 133.121 9.84842 133.121 13.5151C133.121 17.1817 131.964 18.8181 129.833 18.8181C127.701 18.8181 126.483 17.1817 126.483 13.5151C126.483 9.84842 127.701 8.24236 129.833 8.24236Z" fill="white"/>
<path fill-rule="evenodd" clip-rule="evenodd" d="M144.843 19.7273V21.6364H140.58V0H144.874V7.18182C145.604 6.06061 147.31 5.06061 149.137 5.06061C152.73 5.06061 155.592 7.33333 155.592 13.5152C155.592 19.697 152.79 22 149.045 22C147.066 22 145.452 21 144.843 19.7273ZM147.919 8.27273C150.05 8.27273 151.268 9.84848 151.268 13.5152C151.268 17.1818 150.05 18.8182 147.919 18.8182C145.787 18.8182 144.63 17.1818 144.63 13.5152C144.63 9.84848 145.787 8.27273 147.919 8.27273Z" fill="white"/>
<path d="M157.359 16.8181H161.652C161.713 18.5151 162.627 19.3332 164.24 19.3332C165.854 19.3332 166.768 18.606 166.768 17.3332C166.768 16.1817 166.067 15.7575 164.545 15.3938L163.235 15.0605C159.521 14.1211 157.663 13.1211 157.663 10.0605C157.663 6.99994 160.526 5.06055 164.179 5.06055C167.833 5.06055 170.604 6.48479 170.726 9.84842H166.433C166.341 8.36358 165.428 7.72721 164.119 7.72721C162.809 7.72721 161.896 8.36358 161.896 9.5757C161.896 10.6969 162.627 11.1211 163.905 11.4241L165.245 11.7575C168.777 12.6363 171 13.5151 171 16.7878C171 20.0605 168.077 21.9999 164.119 21.9999C159.825 21.9999 157.45 20.3938 157.359 16.8181Z" fill="white"/>
</g>
<defs>
<clipPath id="clip0_673_778">
<rect width="171" height="22" fill="white"/>
</clipPath>
</defs>
</svg>
